PathFileType	4	(X/Y/Z)	./resultDataOpenSim/trcMotMarkerGrf/sub09/qtm-03-07.trc
DataRate	CameraRate	NumFrames	NumMarkers	Units	OrigDataRate	OrigDataStartFrame	OrigNumFrames
250.000000	250.000000	9	24	m	250.000000	123	491
Frame#	Time	L.Toe.Tip			R.Toe.Tip			L.Ankle.Lat			R.Ankle.Lat			L.Ankle.Med			R.Ankle.Med			L.Heel			R.Heel			L.Knee.Lat			R.Knee.Lat			L.Knee.Med			R.Knee.Med			L.Thigh.Upper			R.Thigh.Upper			L.ASIS			R.ASIS			V.Sacral			L.Acromium			R.Acromium			C7			L.Elbow			R.Elbow			L.Wrist.Lat			R.Wrist.Lat
		X1	Y1	Z1	X2	Y2	Z2	X3	Y3	Z3	X4	Y4	Z4	X5	Y5	Z5	X6	Y6	Z6	X7	Y7	Z7	X8	Y8	Z8	X9	Y9	Z9	X10	Y10	Z10	X11	Y11	Z11	X12	Y12	Z12	X13	Y13	Z13	X14	Y14	Z14	X15	Y15	Z15	X16	Y16	Z16	X17	Y17	Z17	X18	Y18	Z18	X19	Y19	Z19	X20	Y20	Z20	X21	Y21	Z21	X22	Y22	Z22	X23	Y23	Z23	X24	Y24	Z24

123	0.488	-0.25122796	0.077281387	-0.04934779	-0.67119271	0.038698354	0.057157584	-0.40304683	0.10329985	-0.078569906	-0.81869544	0.057511884	0.079130985	-0.3767982	0.12108139	0.015523282	-0.80210774	0.094472363	-0.011070717	-0.46562512	0.06052231	-0.02571879	-0.88510558	0.037119372	0.0248719	-0.40635006	0.52236565	-0.11128946	-0.67526804	0.49600737	0.1508524	-0.40569259	0.51718661	0.013954965	-0.69290986	0.48807328	0.024789545	-0.60521618	0.89335674	-0.15378908	-0.64782689	0.89836814	0.21874356	-0.54056398	0.97981021	-0.088430717	-0.53952862	0.97986727	0.14991961	-0.70736175	1.0349906	0.027541044	-0.55038643	1.4293896	-0.14092272	-0.55286189	1.4369046	0.18720699	-0.61793663	1.4839736	0.024261171	-0.69889803	1.0928918	-0.18010338	-0.65579854	1.0773669	0.28353948	-0.59160746	0.85728467	-0.22949592	-0.42345086	0.92398706	0.24766905
124	0.492	-0.23242134	0.077231369	-0.048550142	-0.67120697	0.038676542	0.057269094	-0.38502337	0.10201952	-0.078154988	-0.81865072	0.057843307	0.078912287	-0.35888139	0.1207064	0.016204901	-0.80191214	0.094544302	-0.011250921	-0.44676706	0.058950589	-0.025084661	-0.88509479	0.037285698	0.02443578	-0.39945715	0.52035546	-0.11127498	-0.67438759	0.49517901	0.1527354	-0.39870591	0.51581756	0.013595639	-0.69079343	0.48774217	0.024954778	-0.59854442	0.89188725	-0.15366298	-0.64245711	0.89746213	0.218896	-0.5340408	0.97847831	-0.088153049	-0.533275	0.97880026	0.15025206	-0.70073478	1.0334871	0.028100843	-0.54436074	1.4281852	-0.14089293	-0.54706668	1.4356528	0.18723104	-0.61204509	1.4827159	0.024272694	-0.69399729	1.0923055	-0.18019237	-0.64924848	1.0757608	0.28398637	-0.58798885	0.85631856	-0.23030846	-0.4154269	0.92473035	0.24684504
125	0.496	-0.2138098	0.077206447	-0.047643294	-0.67119868	0.038667558	0.057408273	-0.36714552	0.10093253	-0.077750916	-0.8186156	0.058127318	0.078695976	-0.34120846	0.12046875	0.016831917	-0.80167609	0.094636633	-0.011432272	-0.42813463	0.057694029	-0.024530374	-0.88506182	0.037508629	0.024000533	-0.392678	0.51821443	-0.1112741	-0.67374108	0.49415415	0.15400068	-0.39180492	0.51433321	0.013238242	-0.68867019	0.48733624	0.025101953	-0.59205188	0.8902822	-0.15353661	-0.63711109	0.89649094	0.21906809	-0.52749078	0.97704845	-0.087878661	-0.52702276	0.97765047	0.15058821	-0.69427327	1.0318464	0.028519694	-0.53833229	1.4269099	-0.14087868	-0.54127706	1.4343151	0.18727145	-0.60617564	1.4813841	0.024311568	-0.68907503	1.0916341	-0.18019557	-0.64269646	1.0740631	0.28441411	-0.5843717	0.85527929	-0.23118093	-0.40743393	0.92539795	0.24602628
126	0.5	-0.19540591	0.077219561	-0.046597478	-0.67117508	0.038662506	0.057537738	-0.34943321	0.1000519	-0.077346094	-0.81861408	0.058327556	0.078483771	-0.32381936	0.12033789	0.01735232	-0.80138748	0.094760272	-0.011609646	-0.40973661	0.056723879	-0.024050111	-0.88500457	0.037782669	0.023579842	-0.38606401	0.51611465	-0.11140932	-0.67248684	0.4933046	0.1545657	-0.38496921	0.51271448	0.012923586	-0.68639894	0.48687011	0.025270557	-0.58570212	0.88855628	-0.15340874	-0.63176068	0.89543706	0.21923879	-0.52090017	0.97552734	-0.087613873	-0.52077544	0.97641728	0.15093411	-0.68794549	1.0301061	0.028770834	-0.5323305	1.4255613	-0.14087049	-0.53548168	1.432896	0.18731548	-0.60032866	1.4799947	0.024393096	-0.68416088	1.0908973	-0.18034059	-0.63613749	1.0722823	0.28481926	-0.58071783	0.85416692	-0.23208497	-0.39947094	0.92599212	0.24521994
127	0.504	-0.17722124	0.077276485	-0.045392703	-0.67114846	0.038654656	0.057609028	-0.3319181	0.099390811	-0.076923193	-0.81862502	0.05847231	0.078277025	-0.30668961	0.12033872	0.017772071	-0.80105652	0.094906765	-0.011786277	-0.39159215	0.056016622	-0.023620314	-0.8849255	0.038087143	0.023173166	-0.37961506	0.51410193	-0.11169045	-0.67069903	0.49259457	0.15476288	-0.37816783	0.51094116	0.012692986	-0.68387528	0.48637838	0.025519295	-0.57937953	0.88673623	-0.1532597	-0.62637043	0.89427762	0.21938379	-0.51426485	0.97392178	-0.087362388	-0.51454211	0.97509765	0.15128799	-0.68157249	1.0282873	0.028907906	-0.52636666	1.4241349	-0.14085727	-0.52967191	1.4314039	0.18734968	-0.59445439	1.4785438	0.02446402	-0.67917349	1.0900926	-0.1807241	-0.6295678	1.070428	0.28520284	-0.57702049	0.85297424	-0.23301275	-0.39154169	0.92650488	0.24443523
128	0.508	-0.15928956	0.077380777	-0.044063257	-0.67112524	0.038641348	0.057602406	-0.3146578	0.098944385	-0.076512894	-0.81861397	0.058599301	0.078074062	-0.28977378	0.12050466	0.018085935	-0.80070901	0.095059306	-0.011979037	-0.37373744	0.055559455	-0.023198967	-0.88482893	0.038406297	0.022769452	-0.37328617	0.51210711	-0.11203444	-0.66877988	0.49183317	0.15484435	-0.37142245	0.50900782	0.012543281	-0.68108992	0.48586916	0.025857699	-0.5729763	0.88484237	-0.15307435	-0.62093291	0.89301524	0.21949727	-0.50758856	0.97224205	-0.087126694	-0.50832708	0.97368286	0.15164256	-0.67496562	1.026395	0.028986459	-0.52041939	1.4226335	-0.14084527	-0.5238471	1.4298427	0.18736908	-0.58847785	1.4770039	0.024418763	-0.67402003	1.0892035	-0.18125458	-0.62298531	1.068503	0.28556494	-0.57330362	0.85169928	-0.23397838	-0.3836479	0.92692473	0.24367665
129	0.512	-0.14165019	0.077543149	-0.042681274	-0.67109933	0.038617768	0.05754871	-0.29773584	0.098679015	-0.076186118	-0.81855918	0.058730075	0.077867219	-0.27304596	0.12084611	0.018253862	-0.80036266	0.095211047	-0.012205447	-0.35619862	0.055324987	-0.022753642	-0.88471581	0.038737569	0.022356295	-0.36701431	0.51004754	-0.11235762	-0.6668068	0.49094528	0.1549072	-0.36479844	0.50692485	0.012430276	-0.67812535	0.48529773	0.026209968	-0.56643291	0.88287476	-0.15286058	-0.61545774	0.89166355	0.21958847	-0.50088011	0.97049778	-0.086913647	-0.50211938	0.97216429	0.15199066	-0.66817618	1.0244426	0.028989034	-0.51447106	1.4210682	-0.14085424	-0.51800257	1.4282116	0.18738059	-0.58240489	1.4753708	0.024246802	-0.66875874	1.0882254	-0.18179082	-0.61639023	1.0665065	0.28590326	-0.56957727	0.85034757	-0.23498784	-0.37578677	0.92724609	0.24295017
130	0.516	-0.1243273	0.077779112	-0.041312987	-0.67105969	0.038578063	0.057498225	-0.2812085	0.098540018	-0.075976152	-0.81845731	0.058874364	0.077644131	-0.2565199	0.12135073	0.018257301	-0.80000649	0.095374339	-0.012455155	-0.33898018	0.05526539	-0.022303951	-0.88458425	0.039091643	0.021929564	-0.36076204	0.50788031	-0.11261917	-0.66457172	0.48997996	0.15500419	-0.35831356	0.50470462	0.012327216	-0.67509913	0.48461291	0.026475669	-0.55976926	0.88081989	-0.15263622	-0.60995081	0.89023051	0.21966627	-0.49414923	0.96869018	-0.086731836	-0.49590058	0.97054178	0.15232698	-0.66147366	1.0224401	0.028888069	-0.50853448	1.4194556	-0.14090306	-0.51213366	1.4265119	0.18739512	-0.57634298	1.4736832	0.024081578	-0.66354128	1.0871643	-0.1822616	-0.60978274	1.0644393	0.28621588	-0.56583291	0.84892182	-0.23603701	-0.36795908	0.92747433	0.24225933
131	0.52	-0.10733824	0.078094762	-0.039996075	-0.67100237	0.038521818	0.057472832	-0.26506584	0.098480615	-0.075852684	-0.81831909	0.059039061	0.077395879	-0.24026023	0.12199404	0.018164064	-0.79960852	0.095574767	-0.012691545	-0.32209435	0.055351789	-0.02192438	-0.88443568	0.03949208	0.021491422	-0.35452098	0.50560017	-0.11282004	-0.66196307	0.4889783	0.15515665	-0.35191098	0.50236032	0.012247236	-0.67206632	0.48381311	0.026622238	-0.55306077	0.87866694	-0.1524149	-0.6044129	0.88872276	0.21973362	-0.48740063	0.96681668	-0.086583297	-0.48966568	0.96882643	0.15264724	-0.65504198	1.0203823	0.028702276	-0.50262659	1.4178079	-0.140996	-0.50624861	1.4247489	0.18741727	-0.57037773	1.4719764	0.024035176	-0.65843081	1.0860194	-0.18267657	-0.60316259	1.0623079	0.28650434	-0.56206964	0.84742138	-0.23713066	-0.36017166	0.927619	0.24159971
